<svg xmlns="http://www.w3.org/2000/svg" viewBox="0 0 140 32" fill="none" aria-label="Mercado Pago">
  <!-- Icono MP: dos arcos característicos (azul oficial #009EE3) -->
  <path d="M8 8c-4.4 0-8 3.6-8 8s3.6 8 8 8 8-3.6 8-8-3.6-8-8-8zm0 12.8c-2.6 0-4.8-2.2-4.8-4.8S5.4 11.2 8 11.2s4.8 2.2 4.8 4.8-2.2 4.8-4.8 4.8z" fill="#009EE3"/>
  <path d="M12.8 14.4v6.4H11V14.4H8.6v-1.2h5.6v1.2h-1.4z" fill="#009EE3"/>
  <path d="M18.2 20.8v-7.6h1.8c1.4 0 2.4 1 2.4 2.4s-1 2.4-2.4 2.4h-.6v2.8h-1.2zm1.2-4.2h.6c.8 0 1.2-.6 1.2-1.2s-.4-1.2-1.2-1.2h-.6v2.4z" fill="#009EE3"/>
  <!-- Wordmark -->
  <text x="32" y="21" font-family="system-ui, -apple-system, sans-serif" font-size="16" font-weight="700" fill="#009EE3">Mercado Pago</text>
</svg>
